<svg width="591" height="590" viewBox="0 0 591 590" fill="none" xmlns="http://www.w3.org/2000/svg">
<path d="M295.5 5V150C342.563 150 384.389 172.422 410.879 207.165L529.891 124.201C477.149 51.9456 391.807 5 295.5 5Z" fill="#FF5800"/>
<path d="M427.816 235.604C435.966 253.732 440.5 273.836 440.5 295C440.5 310.852 437.956 326.109 433.255 340.387L571.632 383.863C580.637 355.859 585.5 325.997 585.5 295C585.5 250.742 575.586 208.8 557.857 171.273C550.007 154.656 540.624 138.905 529.891 124.201L410.879 207.165C417.552 215.917 423.251 225.45 427.816 235.604Z" fill="#FF6A1C"/>
<path d="M295.5 440C264.608 440 235.972 430.339 212.448 413.874C211.458 413.181 210.476 412.475 209.503 411.757L124.223 529.042C128.088 531.876 132.027 534.616 136.034 537.259C181.786 567.436 236.592 585 295.5 585C424.665 585 534.107 500.556 571.632 383.863L433.255 340.387C414.205 398.238 359.729 440 295.5 440Z" fill="#FF7B35"/>
<path d="M124.223 529.042L209.503 411.757C185.429 393.996 167.045 368.967 157.589 339.909L19.4454 384.102C38.3808 442.812 75.5249 493.343 124.223 529.042Z" fill="#FF945B"/>
<path d="M19.4454 205.898C10.391 233.971 5.5 263.914 5.5 295C5.5 326.086 10.391 356.029 19.4454 384.102L157.589 339.909C152.987 325.769 150.5 310.675 150.5 295C150.5 279.325 152.987 264.231 157.589 250.091L19.4454 205.898Z" fill="#FFA271"/>
<path d="M163.184 235.604C185.872 185.14 236.582 150 295.5 150V5C179.595 5 79.5714 72.9958 33.1427 171.273C27.8663 182.442 23.282 194.002 19.4454 205.898L157.589 250.091C159.2 245.14 161.07 240.306 163.184 235.604Z" fill="#FFB086"/>
<path d="M295.5 5C179.595 5 79.5714 72.9958 33.1427 171.273C27.8663 182.442 23.282 194.002 19.4454 205.898M295.5 5V150M295.5 5C391.807 5 477.149 51.9456 529.891 124.201M295.5 150C236.582 150 185.872 185.14 163.184 235.604C161.07 240.306 159.2 245.14 157.589 250.091M295.5 150C342.563 150 384.389 172.422 410.879 207.165M19.4454 205.898C10.391 233.971 5.5 263.914 5.5 295C5.5 326.086 10.391 356.029 19.4454 384.102M19.4454 205.898L157.589 250.091M157.589 250.091C152.987 264.231 150.5 279.325 150.5 295C150.5 310.675 152.987 325.769 157.589 339.909M433.255 340.387C414.205 398.238 359.729 440 295.5 440C264.608 440 235.972 430.339 212.448 413.874C211.458 413.181 210.476 412.475 209.503 411.757M433.255 340.387C437.956 326.109 440.5 310.852 440.5 295C440.5 273.836 435.966 253.732 427.816 235.604C423.251 225.45 417.552 215.917 410.879 207.165M433.255 340.387L571.632 383.863M571.632 383.863C580.637 355.859 585.5 325.997 585.5 295C585.5 250.742 575.586 208.8 557.857 171.273C550.007 154.656 540.624 138.905 529.891 124.201M571.632 383.863C534.107 500.556 424.665 585 295.5 585C236.592 585 181.786 567.436 136.034 537.259C132.027 534.616 128.088 531.876 124.223 529.042M209.503 411.757L124.223 529.042M209.503 411.757C185.429 393.996 167.045 368.967 157.589 339.909M124.223 529.042C75.5249 493.343 38.3808 442.812 19.4454 384.102M19.4454 384.102L157.589 339.909M410.879 207.165L529.891 124.201" stroke="#F2F2F2" stroke-width="10"/>
<path opacity="0.12" d="M171.156 137.359V102.906C171.156 102.406 171.016 102.156 170.734 102.156C170.609 102.156 170.422 102.281 170.172 102.531L167.781 105.016C166.812 105.984 165.594 106.469 164.125 106.469C162.656 106.469 161.438 105.984 160.469 105.016C159.531 104.047 159.062 102.828 159.062 101.359C159.062 99.8594 159.562 98.6094 160.562 97.6094L172.656 85.3281C173.688 84.2969 174.969 83.7812 176.5 83.7812C177.969 83.7812 179.203 84.2812 180.203 85.2812C181.203 86.2812 181.703 87.5156 181.703 88.9844V137.359C181.703 138.266 182.016 139.047 182.641 139.703C183.297 140.328 184.078 140.641 184.984 140.641H188.922C190.391 140.641 191.594 141.141 192.531 142.141C193.5 143.109 193.984 144.328 193.984 145.797C193.984 147.297 193.5 148.547 192.531 149.547C191.594 150.516 190.391 151 188.922 151H164.125C162.656 151 161.438 150.516 160.469 149.547C159.531 148.547 159.062 147.297 159.062 145.797C159.062 144.328 159.531 143.109 160.469 142.141C161.438 141.141 162.656 140.641 164.125 140.641H167.969C168.875 140.641 169.625 140.328 170.219 139.703C170.844 139.047 171.156 138.266 171.156 137.359Z" fill="black"/>
<path d="M159.524 113.285V113.543C159.524 113.91 159.399 114.215 159.149 114.457C158.899 114.699 158.591 114.82 158.223 114.82C157.856 114.82 157.548 114.699 157.298 114.457C157.055 114.215 156.934 113.91 156.934 113.543V112.488C156.934 112.129 157.059 111.824 157.309 111.574L159.278 109.605C159.489 109.332 159.794 109.195 160.192 109.195H164.54C164.915 109.195 165.22 109.332 165.454 109.605L167.411 111.574C167.653 111.879 167.774 112.184 167.774 112.488V113.93C167.774 114.281 167.653 114.578 167.411 114.82L159.688 122.473C159.61 122.551 159.571 122.648 159.571 122.766C159.571 122.938 159.649 123.082 159.805 123.199C159.962 123.309 160.138 123.363 160.333 123.363H166.509C166.876 123.363 167.177 123.488 167.411 123.738C167.653 123.988 167.774 124.301 167.774 124.676C167.774 125.051 167.653 125.367 167.411 125.625C167.177 125.875 166.876 126 166.509 126H158.223C157.856 126 157.548 125.875 157.298 125.625C157.055 125.367 156.934 125.051 156.934 124.676V122.086C156.934 121.727 157.059 121.438 157.309 121.219L165.091 113.496C165.153 113.41 165.184 113.312 165.184 113.203C165.184 113.102 165.153 113.008 165.091 112.922L164.177 112.008C164.067 111.898 163.923 111.844 163.743 111.844H160.989C160.809 111.844 160.665 111.898 160.555 112.008L159.688 112.875C159.579 112.984 159.524 113.121 159.524 113.285ZM173.957 109.605H173.934C174.168 109.332 174.473 109.195 174.848 109.195H178.188C178.516 109.195 178.809 109.324 179.066 109.582L181.539 112.078C181.797 112.336 181.926 112.641 181.926 112.992V122.203C181.926 122.57 181.797 122.883 181.539 123.141L179.066 125.613C178.809 125.871 178.516 126 178.188 126H174.848C174.488 126 174.191 125.863 173.957 125.59L171.461 123.117C171.211 122.867 171.086 122.562 171.086 122.203V112.992C171.086 112.633 171.211 112.328 171.461 112.078L173.957 109.605ZM178.973 113.227V113.203C178.973 113.172 178.957 113.141 178.926 113.109L177.801 112.008C177.691 111.898 177.555 111.844 177.391 111.844H175.645C175.465 111.844 175.32 111.898 175.211 112.008L173.887 113.332C173.777 113.441 173.723 113.586 173.723 113.766V118.172C173.723 118.305 173.754 118.371 173.816 118.371C173.863 118.371 173.918 118.34 173.98 118.277L178.926 113.332C178.957 113.301 178.973 113.266 178.973 113.227ZM174.109 122.086L175.211 123.188C175.328 123.305 175.473 123.363 175.645 123.363H177.391C177.547 123.363 177.684 123.305 177.801 123.188L179.148 121.875C179.242 121.758 179.289 121.613 179.289 121.441V117.047C179.289 116.922 179.258 116.859 179.195 116.859C179.141 116.859 179.082 116.891 179.02 116.953L174.109 121.875C174.07 121.914 174.051 121.953 174.051 121.992C174.051 122.016 174.07 122.047 174.109 122.086ZM193.441 112.676V110.496C193.441 110.129 193.57 109.82 193.827 109.57C194.093 109.32 194.413 109.195 194.788 109.195C195.155 109.195 195.46 109.32 195.702 109.57C195.952 109.82 196.077 110.129 196.077 110.496V113.473C196.077 113.824 195.948 114.129 195.691 114.387L188.038 122.086C187.929 122.195 187.874 122.34 187.874 122.52V124.699C187.874 125.066 187.745 125.375 187.488 125.625C187.23 125.875 186.917 126 186.55 126C186.183 126 185.87 125.875 185.613 125.625C185.363 125.375 185.238 125.066 185.238 124.699V121.723C185.238 121.387 185.37 121.086 185.636 120.82L193.3 113.109C193.394 112.992 193.441 112.848 193.441 112.676ZM187.968 113.156H186.55C186.175 113.156 185.863 113.039 185.613 112.805C185.363 112.562 185.238 112.258 185.238 111.891V110.496C185.238 110.129 185.363 109.82 185.613 109.57C185.87 109.32 186.183 109.195 186.55 109.195H187.968C188.32 109.195 188.62 109.32 188.87 109.57C189.12 109.82 189.245 110.129 189.245 110.496V111.891C189.245 112.25 189.12 112.551 188.87 112.793C188.62 113.035 188.32 113.156 187.968 113.156ZM194.788 126H193.347C192.995 126 192.698 125.875 192.456 125.625C192.214 125.375 192.093 125.066 192.093 124.699V123.316C192.093 122.949 192.214 122.645 192.456 122.402C192.698 122.16 192.995 122.039 193.347 122.039H194.788C195.155 122.039 195.46 122.16 195.702 122.402C195.952 122.645 196.077 122.949 196.077 123.316V124.699C196.077 125.066 195.952 125.375 195.702 125.625C195.46 125.875 195.155 126 194.788 126Z" fill="white"/>
<path opacity="0.12" d="M73.2031 277.141V278.172C73.2031 279.641 72.7031 280.859 71.7031 281.828C70.7031 282.797 69.4688 283.281 68 283.281C66.5312 283.281 65.2969 282.797 64.2969 281.828C63.3281 280.859 62.8438 279.641 62.8438 278.172V273.953C62.8438 272.516 63.3438 271.297 64.3438 270.297L72.2188 262.422C73.0625 261.328 74.2812 260.781 75.875 260.781H93.2656C94.7656 260.781 95.9844 261.328 96.9219 262.422L104.75 270.297C105.719 271.516 106.203 272.734 106.203 273.953V279.719C106.203 281.125 105.719 282.312 104.75 283.281L73.8594 313.891C73.5469 314.203 73.3906 314.594 73.3906 315.062C73.3906 315.75 73.7031 316.328 74.3281 316.797C74.9531 317.234 75.6562 317.453 76.4375 317.453H101.141C102.609 317.453 103.812 317.953 104.75 318.953C105.719 319.953 106.203 321.203 106.203 322.703C106.203 324.203 105.719 325.469 104.75 326.5C103.812 327.5 102.609 328 101.141 328H68C66.5312 328 65.2969 327.5 64.2969 326.5C63.3281 325.469 62.8438 324.203 62.8438 322.703V312.344C62.8438 310.906 63.3438 309.75 64.3438 308.875L95.4688 277.984C95.7188 277.641 95.8438 277.25 95.8438 276.812C95.8438 276.406 95.7188 276.031 95.4688 275.688L91.8125 272.031C91.375 271.594 90.7969 271.375 90.0781 271.375H79.0625C78.3438 271.375 77.7656 271.594 77.3281 272.031L73.8594 275.5C73.4219 275.938 73.2031 276.484 73.2031 277.141Z" fill="black"/>
<path d="M69.0125 299.59V290.977C69.0125 290.852 68.9773 290.789 68.907 290.789C68.8758 290.789 68.8289 290.82 68.7664 290.883L68.1688 291.504C67.9266 291.746 67.6219 291.867 67.2547 291.867C66.8875 291.867 66.5828 291.746 66.3406 291.504C66.1063 291.262 65.9891 290.957 65.9891 290.59C65.9891 290.215 66.1141 289.902 66.3641 289.652L69.3875 286.582C69.6453 286.324 69.9656 286.195 70.3484 286.195C70.7156 286.195 71.0242 286.32 71.2742 286.57C71.5242 286.82 71.6492 287.129 71.6492 287.496V299.59C71.6492 299.816 71.7273 300.012 71.8836 300.176C72.0477 300.332 72.243 300.41 72.4695 300.41H73.4539C73.8211 300.41 74.1219 300.535 74.3563 300.785C74.5984 301.027 74.7195 301.332 74.7195 301.699C74.7195 302.074 74.5984 302.387 74.3563 302.637C74.1219 302.879 73.8211 303 73.4539 303H67.2547C66.8875 303 66.5828 302.879 66.3406 302.637C66.1063 302.387 65.9891 302.074 65.9891 301.699C65.9891 301.332 66.1063 301.027 66.3406 300.785C66.5828 300.535 66.8875 300.41 67.2547 300.41H68.2156C68.4422 300.41 68.6297 300.332 68.7781 300.176C68.9344 300.012 69.0125 299.816 69.0125 299.59ZM81.957 286.605H81.9336C82.168 286.332 82.4727 286.195 82.8477 286.195H86.1875C86.5156 286.195 86.8086 286.324 87.0664 286.582L89.5391 289.078C89.7969 289.336 89.9258 289.641 89.9258 289.992V299.203C89.9258 299.57 89.7969 299.883 89.5391 300.141L87.0664 302.613C86.8086 302.871 86.5156 303 86.1875 303H82.8477C82.4883 303 82.1914 302.863 81.957 302.59L79.4609 300.117C79.2109 299.867 79.0859 299.562 79.0859 299.203V289.992C79.0859 289.633 79.2109 289.328 79.4609 289.078L81.957 286.605ZM86.9727 290.227V290.203C86.9727 290.172 86.957 290.141 86.9258 290.109L85.8008 289.008C85.6914 288.898 85.5547 288.844 85.3906 288.844H83.6445C83.4648 288.844 83.3203 288.898 83.2109 289.008L81.8867 290.332C81.7773 290.441 81.7227 290.586 81.7227 290.766V295.172C81.7227 295.305 81.7539 295.371 81.8164 295.371C81.8633 295.371 81.918 295.34 81.9805 295.277L86.9258 290.332C86.957 290.301 86.9727 290.266 86.9727 290.227ZM82.1094 299.086L83.2109 300.188C83.3281 300.305 83.4727 300.363 83.6445 300.363H85.3906C85.5469 300.363 85.6836 300.305 85.8008 300.188L87.1484 298.875C87.2422 298.758 87.2891 298.613 87.2891 298.441V294.047C87.2891 293.922 87.2578 293.859 87.1953 293.859C87.1406 293.859 87.082 293.891 87.0195 293.953L82.1094 298.875C82.0703 298.914 82.0508 298.953 82.0508 298.992C82.0508 299.016 82.0703 299.047 82.1094 299.086ZM101.441 289.676V287.496C101.441 287.129 101.57 286.82 101.827 286.57C102.093 286.32 102.413 286.195 102.788 286.195C103.155 286.195 103.46 286.32 103.702 286.57C103.952 286.82 104.077 287.129 104.077 287.496V290.473C104.077 290.824 103.948 291.129 103.691 291.387L96.0383 299.086C95.9289 299.195 95.8742 299.34 95.8742 299.52V301.699C95.8742 302.066 95.7453 302.375 95.4875 302.625C95.2297 302.875 94.9172 303 94.55 303C94.1828 303 93.8703 302.875 93.6125 302.625C93.3625 302.375 93.2375 302.066 93.2375 301.699V298.723C93.2375 298.387 93.3703 298.086 93.6359 297.82L101.3 290.109C101.394 289.992 101.441 289.848 101.441 289.676ZM95.968 290.156H94.55C94.175 290.156 93.8625 290.039 93.6125 289.805C93.3625 289.562 93.2375 289.258 93.2375 288.891V287.496C93.2375 287.129 93.3625 286.82 93.6125 286.57C93.8703 286.32 94.1828 286.195 94.55 286.195H95.968C96.3195 286.195 96.6203 286.32 96.8703 286.57C97.1203 286.82 97.2453 287.129 97.2453 287.496V288.891C97.2453 289.25 97.1203 289.551 96.8703 289.793C96.6203 290.035 96.3195 290.156 95.968 290.156ZM102.788 303H101.347C100.995 303 100.698 302.875 100.456 302.625C100.214 302.375 100.093 302.066 100.093 301.699V300.316C100.093 299.949 100.214 299.645 100.456 299.402C100.698 299.16 100.995 299.039 101.347 299.039H102.788C103.155 299.039 103.46 299.16 103.702 299.402C103.952 299.645 104.077 299.949 104.077 300.316V301.699C104.077 302.066 103.952 302.375 103.702 302.625C103.46 302.875 103.155 303 102.788 303Z" fill="white"/>
<path opacity="0.12" d="M112.203 406.047V407.172C112.203 408.641 111.703 409.859 110.703 410.828C109.703 411.797 108.469 412.281 107 412.281C105.531 412.281 104.297 411.797 103.297 410.828C102.328 409.859 101.844 408.641 101.844 407.172V402.953C101.844 401.516 102.344 400.297 103.344 399.297L111.219 391.422C112.062 390.328 113.281 389.781 114.875 389.781H132.078C133.547 389.781 134.75 390.328 135.688 391.422L143.75 399.297C144.719 400.266 145.203 401.484 145.203 402.953V415.516C145.203 416.984 144.719 418.203 143.75 419.172L141.734 421.094C141.172 421.656 140.891 422.422 140.891 423.391C140.891 424.422 141.172 425.219 141.734 425.781L143.75 427.703C144.719 428.672 145.203 429.891 145.203 431.359V443.828C145.203 445.297 144.719 446.516 143.75 447.484L135.688 455.359C134.75 456.453 133.547 457 132.078 457H114.875C113.281 457 112.062 456.453 111.219 455.359L103.344 447.484C102.344 446.484 101.844 445.266 101.844 443.828V439.609C101.844 438.141 102.328 436.953 103.297 436.047C104.266 435.109 105.5 434.641 107 434.641C108.5 434.641 109.734 435.109 110.703 436.047C111.703 436.953 112.203 438.141 112.203 439.609V440.781C112.203 441.375 112.422 441.891 112.859 442.328L116.328 445.75C116.797 446.219 117.375 446.453 118.062 446.453H128.891C129.578 446.453 130.156 446.219 130.625 445.75L134.094 442.328C134.469 441.859 134.656 441.344 134.656 440.781V434.453C134.656 433.828 134.469 433.281 134.094 432.812L130.625 429.25C130.094 428.812 129.516 428.594 128.891 428.594H118.438C116.969 428.594 115.734 428.094 114.734 427.094C113.734 426.094 113.234 424.859 113.234 423.391C113.234 421.922 113.719 420.719 114.688 419.781C115.688 418.812 116.938 418.328 118.438 418.328H128.891C129.484 418.328 130.062 418.094 130.625 417.625L134.094 414.109C134.469 413.641 134.656 413.094 134.656 412.469V406.047C134.656 405.484 134.469 404.969 134.094 404.5L130.625 401.031C130.188 400.594 129.609 400.375 128.891 400.375H118.062C117.344 400.375 116.766 400.594 116.328 401.031L112.859 404.5C112.422 404.938 112.203 405.453 112.203 406.047Z" fill="black"/>
<path d="M108.013 428.59V419.977C108.013 419.852 107.977 419.789 107.907 419.789C107.876 419.789 107.829 419.82 107.766 419.883L107.169 420.504C106.927 420.746 106.622 420.867 106.255 420.867C105.888 420.867 105.583 420.746 105.341 420.504C105.106 420.262 104.989 419.957 104.989 419.59C104.989 419.215 105.114 418.902 105.364 418.652L108.388 415.582C108.645 415.324 108.966 415.195 109.348 415.195C109.716 415.195 110.024 415.32 110.274 415.57C110.524 415.82 110.649 416.129 110.649 416.496V428.59C110.649 428.816 110.727 429.012 110.884 429.176C111.048 429.332 111.243 429.41 111.47 429.41H112.454C112.821 429.41 113.122 429.535 113.356 429.785C113.598 430.027 113.72 430.332 113.72 430.699C113.72 431.074 113.598 431.387 113.356 431.637C113.122 431.879 112.821 432 112.454 432H106.255C105.888 432 105.583 431.879 105.341 431.637C105.106 431.387 104.989 431.074 104.989 430.699C104.989 430.332 105.106 430.027 105.341 429.785C105.583 429.535 105.888 429.41 106.255 429.41H107.216C107.442 429.41 107.63 429.332 107.778 429.176C107.934 429.012 108.013 428.816 108.013 428.59ZM120.957 415.605H120.934C121.168 415.332 121.473 415.195 121.848 415.195H125.188C125.516 415.195 125.809 415.324 126.066 415.582L128.539 418.078C128.797 418.336 128.926 418.641 128.926 418.992V428.203C128.926 428.57 128.797 428.883 128.539 429.141L126.066 431.613C125.809 431.871 125.516 432 125.188 432H121.848C121.488 432 121.191 431.863 120.957 431.59L118.461 429.117C118.211 428.867 118.086 428.562 118.086 428.203V418.992C118.086 418.633 118.211 418.328 118.461 418.078L120.957 415.605ZM125.973 419.227V419.203C125.973 419.172 125.957 419.141 125.926 419.109L124.801 418.008C124.691 417.898 124.555 417.844 124.391 417.844H122.645C122.465 417.844 122.32 417.898 122.211 418.008L120.887 419.332C120.777 419.441 120.723 419.586 120.723 419.766V424.172C120.723 424.305 120.754 424.371 120.816 424.371C120.863 424.371 120.918 424.34 120.98 424.277L125.926 419.332C125.957 419.301 125.973 419.266 125.973 419.227ZM121.109 428.086L122.211 429.188C122.328 429.305 122.473 429.363 122.645 429.363H124.391C124.547 429.363 124.684 429.305 124.801 429.188L126.148 427.875C126.242 427.758 126.289 427.613 126.289 427.441V423.047C126.289 422.922 126.258 422.859 126.195 422.859C126.141 422.859 126.082 422.891 126.02 422.953L121.109 427.875C121.07 427.914 121.051 427.953 121.051 427.992C121.051 428.016 121.07 428.047 121.109 428.086ZM140.441 418.676V416.496C140.441 416.129 140.57 415.82 140.827 415.57C141.093 415.32 141.413 415.195 141.788 415.195C142.155 415.195 142.46 415.32 142.702 415.57C142.952 415.82 143.077 416.129 143.077 416.496V419.473C143.077 419.824 142.948 420.129 142.691 420.387L135.038 428.086C134.929 428.195 134.874 428.34 134.874 428.52V430.699C134.874 431.066 134.745 431.375 134.488 431.625C134.23 431.875 133.917 432 133.55 432C133.183 432 132.87 431.875 132.613 431.625C132.363 431.375 132.238 431.066 132.238 430.699V427.723C132.238 427.387 132.37 427.086 132.636 426.82L140.3 419.109C140.394 418.992 140.441 418.848 140.441 418.676ZM134.968 419.156H133.55C133.175 419.156 132.863 419.039 132.613 418.805C132.363 418.562 132.238 418.258 132.238 417.891V416.496C132.238 416.129 132.363 415.82 132.613 415.57C132.87 415.32 133.183 415.195 133.55 415.195H134.968C135.32 415.195 135.62 415.32 135.87 415.57C136.12 415.82 136.245 416.129 136.245 416.496V417.891C136.245 418.25 136.12 418.551 135.87 418.793C135.62 419.035 135.32 419.156 134.968 419.156ZM141.788 432H140.347C139.995 432 139.698 431.875 139.456 431.625C139.214 431.375 139.093 431.066 139.093 430.699V429.316C139.093 428.949 139.214 428.645 139.456 428.402C139.698 428.16 139.995 428.039 140.347 428.039H141.788C142.155 428.039 142.46 428.16 142.702 428.402C142.952 428.645 143.077 428.949 143.077 429.316V430.699C143.077 431.066 142.952 431.375 142.702 431.625C142.46 431.875 142.155 432 141.788 432Z" fill="white"/>
<path opacity="0.12" d="M350.156 493.25H363.469C364.375 493.25 365.125 492.938 365.719 492.312C366.344 491.656 366.656 490.875 366.656 489.969V467.984C366.656 466.516 367.172 465.281 368.203 464.281C369.266 463.281 370.547 462.781 372.047 462.781C373.516 462.781 374.734 463.281 375.703 464.281C376.703 465.281 377.203 466.516 377.203 467.984V524.797C377.203 526.266 376.703 527.5 375.703 528.5C374.734 529.5 373.516 530 372.047 530C370.547 530 369.266 529.5 368.203 528.5C367.172 527.5 366.656 526.266 366.656 524.797V507.078C366.656 506.172 366.344 505.406 365.719 504.781C365.125 504.125 364.375 503.797 363.469 503.797H347.062C345.469 503.797 344.25 503.25 343.406 502.156L335.344 494.281C334.344 493.281 333.844 492.031 333.844 490.531V467.984C333.844 466.516 334.344 465.281 335.344 464.281C336.375 463.281 337.625 462.781 339.094 462.781C340.562 462.781 341.812 463.281 342.844 464.281C343.875 465.281 344.391 466.516 344.391 467.984V487.484C344.391 488.141 344.609 488.688 345.047 489.125L348.422 492.547C348.891 493.016 349.469 493.25 350.156 493.25Z" fill="black"/>
<path d="M338.524 492.262V492.543C338.524 492.91 338.399 493.215 338.149 493.457C337.899 493.699 337.591 493.82 337.223 493.82C336.856 493.82 336.548 493.699 336.298 493.457C336.055 493.215 335.934 492.91 335.934 492.543V491.488C335.934 491.129 336.059 490.824 336.309 490.574L338.278 488.605C338.489 488.332 338.794 488.195 339.192 488.195H343.493C343.86 488.195 344.161 488.332 344.395 488.605L346.411 490.574C346.653 490.816 346.774 491.121 346.774 491.488V494.629C346.774 494.996 346.653 495.301 346.411 495.543L345.907 496.023C345.766 496.164 345.696 496.355 345.696 496.598C345.696 496.855 345.766 497.055 345.907 497.195L346.411 497.676C346.653 497.918 346.774 498.223 346.774 498.59V501.707C346.774 502.074 346.653 502.379 346.411 502.621L344.395 504.59C344.161 504.863 343.86 505 343.493 505H339.192C338.794 505 338.489 504.863 338.278 504.59L336.309 502.621C336.059 502.371 335.934 502.066 335.934 501.707V500.652C335.934 500.285 336.055 499.988 336.298 499.762C336.54 499.527 336.848 499.41 337.223 499.41C337.598 499.41 337.907 499.527 338.149 499.762C338.399 499.988 338.524 500.285 338.524 500.652V500.945C338.524 501.094 338.579 501.223 338.688 501.332L339.555 502.188C339.673 502.305 339.817 502.363 339.989 502.363H342.696C342.868 502.363 343.013 502.305 343.13 502.188L343.997 501.332C344.091 501.215 344.138 501.086 344.138 500.945V499.363C344.138 499.207 344.091 499.07 343.997 498.953L343.13 498.062C342.997 497.953 342.852 497.898 342.696 497.898H340.083C339.716 497.898 339.407 497.773 339.157 497.523C338.907 497.273 338.782 496.965 338.782 496.598C338.782 496.23 338.903 495.93 339.145 495.695C339.395 495.453 339.708 495.332 340.083 495.332H342.696C342.845 495.332 342.989 495.273 343.13 495.156L343.997 494.277C344.091 494.16 344.138 494.023 344.138 493.867V492.262C344.138 492.121 344.091 491.992 343.997 491.875L343.13 491.008C343.02 490.898 342.876 490.844 342.696 490.844H339.989C339.809 490.844 339.665 490.898 339.555 491.008L338.688 491.875C338.579 491.984 338.524 492.113 338.524 492.262ZM352.957 488.605H352.934C353.168 488.332 353.473 488.195 353.848 488.195H357.188C357.516 488.195 357.809 488.324 358.066 488.582L360.539 491.078C360.797 491.336 360.926 491.641 360.926 491.992V501.203C360.926 501.57 360.797 501.883 360.539 502.141L358.066 504.613C357.809 504.871 357.516 505 357.188 505H353.848C353.488 505 353.191 504.863 352.957 504.59L350.461 502.117C350.211 501.867 350.086 501.562 350.086 501.203V491.992C350.086 491.633 350.211 491.328 350.461 491.078L352.957 488.605ZM357.973 492.227V492.203C357.973 492.172 357.957 492.141 357.926 492.109L356.801 491.008C356.691 490.898 356.555 490.844 356.391 490.844H354.645C354.465 490.844 354.32 490.898 354.211 491.008L352.887 492.332C352.777 492.441 352.723 492.586 352.723 492.766V497.172C352.723 497.305 352.754 497.371 352.816 497.371C352.863 497.371 352.918 497.34 352.98 497.277L357.926 492.332C357.957 492.301 357.973 492.266 357.973 492.227ZM353.109 501.086L354.211 502.188C354.328 502.305 354.473 502.363 354.645 502.363H356.391C356.547 502.363 356.684 502.305 356.801 502.188L358.148 500.875C358.242 500.758 358.289 500.613 358.289 500.441V496.047C358.289 495.922 358.258 495.859 358.195 495.859C358.141 495.859 358.082 495.891 358.02 495.953L353.109 500.875C353.07 500.914 353.051 500.953 353.051 500.992C353.051 501.016 353.07 501.047 353.109 501.086ZM372.441 491.676V489.496C372.441 489.129 372.57 488.82 372.827 488.57C373.093 488.32 373.413 488.195 373.788 488.195C374.155 488.195 374.46 488.32 374.702 488.57C374.952 488.82 375.077 489.129 375.077 489.496V492.473C375.077 492.824 374.948 493.129 374.691 493.387L367.038 501.086C366.929 501.195 366.874 501.34 366.874 501.52V503.699C366.874 504.066 366.745 504.375 366.488 504.625C366.23 504.875 365.917 505 365.55 505C365.183 505 364.87 504.875 364.613 504.625C364.363 504.375 364.238 504.066 364.238 503.699V500.723C364.238 500.387 364.37 500.086 364.636 499.82L372.3 492.109C372.394 491.992 372.441 491.848 372.441 491.676ZM366.968 492.156H365.55C365.175 492.156 364.863 492.039 364.613 491.805C364.363 491.562 364.238 491.258 364.238 490.891V489.496C364.238 489.129 364.363 488.82 364.613 488.57C364.87 488.32 365.183 488.195 365.55 488.195H366.968C367.32 488.195 367.62 488.32 367.87 488.57C368.12 488.82 368.245 489.129 368.245 489.496V490.891C368.245 491.25 368.12 491.551 367.87 491.793C367.62 492.035 367.32 492.156 366.968 492.156ZM373.788 505H372.347C371.995 505 371.698 504.875 371.456 504.625C371.214 504.375 371.093 504.066 371.093 503.699V502.316C371.093 501.949 371.214 501.645 371.456 501.402C371.698 501.16 371.995 501.039 372.347 501.039H373.788C374.155 501.039 374.46 501.16 374.702 501.402C374.952 501.645 375.077 501.949 375.077 502.316V503.699C375.077 504.066 374.952 504.375 374.702 504.625C374.46 504.875 374.155 505 373.788 505Z" fill="white"/>
<path opacity="0.12" d="M496.391 278.609V279.781C496.391 280.438 496.609 280.984 497.047 281.422L500.422 284.75C500.891 285.219 501.469 285.453 502.156 285.453H512.984C513.672 285.453 514.25 285.219 514.719 284.75L518.094 281.422C518.469 280.953 518.656 280.406 518.656 279.781V271.344C518.656 270.719 518.469 270.172 518.094 269.703L514.719 266.328C514.281 265.891 513.703 265.672 512.984 265.672H499.062C497.438 265.672 496.219 265.156 495.406 264.125L487.344 256.156C486.344 255.156 485.844 253.906 485.844 252.406V234.078C485.844 232.609 486.344 231.359 487.344 230.328C488.375 229.297 489.625 228.781 491.094 228.781H524.047C525.516 228.781 526.734 229.297 527.703 230.328C528.703 231.328 529.203 232.578 529.203 234.078C529.203 235.609 528.703 236.875 527.703 237.875C526.734 238.875 525.516 239.375 524.047 239.375H499.531C498.625 239.375 497.875 239.688 497.281 240.312C496.688 240.938 496.391 241.703 496.391 242.609V249.453C496.391 250.234 496.609 250.781 497.047 251.094L500.422 254.422C500.891 254.891 501.469 255.125 502.156 255.125H515.984C517.516 255.125 518.75 255.656 519.688 256.719L527.75 264.594C528.719 265.719 529.203 266.938 529.203 268.25V282.922C529.203 284.172 528.719 285.359 527.75 286.484L519.688 294.359C518.75 295.453 517.516 296 515.984 296H499.062C497.469 296 496.25 295.453 495.406 294.359L487.344 286.484C486.344 285.484 485.844 284.297 485.844 282.922V278.609C485.844 277.234 486.344 276.062 487.344 275.094C488.375 274.125 489.625 273.641 491.094 273.641C492.562 273.641 493.812 274.125 494.844 275.094C495.875 276.062 496.391 277.234 496.391 278.609Z" fill="black"/>
<path d="M492.013 267.59V258.977C492.013 258.852 491.977 258.789 491.907 258.789C491.876 258.789 491.829 258.82 491.766 258.883L491.169 259.504C490.927 259.746 490.622 259.867 490.255 259.867C489.888 259.867 489.583 259.746 489.341 259.504C489.106 259.262 488.989 258.957 488.989 258.59C488.989 258.215 489.114 257.902 489.364 257.652L492.388 254.582C492.645 254.324 492.966 254.195 493.348 254.195C493.716 254.195 494.024 254.32 494.274 254.57C494.524 254.82 494.649 255.129 494.649 255.496V267.59C494.649 267.816 494.727 268.012 494.884 268.176C495.048 268.332 495.243 268.41 495.47 268.41H496.454C496.821 268.41 497.122 268.535 497.356 268.785C497.598 269.027 497.72 269.332 497.72 269.699C497.72 270.074 497.598 270.387 497.356 270.637C497.122 270.879 496.821 271 496.454 271H490.255C489.888 271 489.583 270.879 489.341 270.637C489.106 270.387 488.989 270.074 488.989 269.699C488.989 269.332 489.106 269.027 489.341 268.785C489.583 268.535 489.888 268.41 490.255 268.41H491.216C491.442 268.41 491.63 268.332 491.778 268.176C491.934 268.012 492.013 267.816 492.013 267.59ZM504.723 266.652V266.945C504.723 267.109 504.777 267.246 504.887 267.355L505.73 268.188C505.848 268.305 505.992 268.363 506.164 268.363H508.871C509.043 268.363 509.188 268.305 509.305 268.188L510.148 267.355C510.242 267.238 510.289 267.102 510.289 266.945V264.836C510.289 264.68 510.242 264.543 510.148 264.426L509.305 263.582C509.195 263.473 509.051 263.418 508.871 263.418H505.391C504.984 263.418 504.68 263.289 504.477 263.031L502.461 261.039C502.211 260.789 502.086 260.477 502.086 260.102V255.52C502.086 255.152 502.211 254.84 502.461 254.582C502.719 254.324 503.031 254.195 503.398 254.195H511.637C512.004 254.195 512.309 254.324 512.551 254.582C512.801 254.832 512.926 255.145 512.926 255.52C512.926 255.902 512.801 256.219 512.551 256.469C512.309 256.719 512.004 256.844 511.637 256.844H505.508C505.281 256.844 505.094 256.922 504.945 257.078C504.797 257.234 504.723 257.426 504.723 257.652V259.363C504.723 259.559 504.777 259.695 504.887 259.773L505.73 260.605C505.848 260.723 505.992 260.781 506.164 260.781H509.621C510.004 260.781 510.313 260.914 510.547 261.18L512.563 263.148C512.805 263.43 512.926 263.734 512.926 264.062V267.73C512.926 268.043 512.805 268.34 512.563 268.621L510.547 270.59C510.313 270.863 510.004 271 509.621 271H505.391C504.992 271 504.688 270.863 504.477 270.59L502.461 268.621C502.211 268.371 502.086 268.074 502.086 267.73V266.652C502.086 266.309 502.211 266.016 502.461 265.773C502.719 265.531 503.031 265.41 503.398 265.41C503.766 265.41 504.078 265.531 504.336 265.773C504.594 266.016 504.723 266.309 504.723 266.652ZM524.441 257.676V255.496C524.441 255.129 524.57 254.82 524.827 254.57C525.093 254.32 525.413 254.195 525.788 254.195C526.155 254.195 526.46 254.32 526.702 254.57C526.952 254.82 527.077 255.129 527.077 255.496V258.473C527.077 258.824 526.948 259.129 526.691 259.387L519.038 267.086C518.929 267.195 518.874 267.34 518.874 267.52V269.699C518.874 270.066 518.745 270.375 518.488 270.625C518.23 270.875 517.917 271 517.55 271C517.183 271 516.87 270.875 516.613 270.625C516.363 270.375 516.238 270.066 516.238 269.699V266.723C516.238 266.387 516.37 266.086 516.636 265.82L524.3 258.109C524.394 257.992 524.441 257.848 524.441 257.676ZM518.968 258.156H517.55C517.175 258.156 516.863 258.039 516.613 257.805C516.363 257.562 516.238 257.258 516.238 256.891V255.496C516.238 255.129 516.363 254.82 516.613 254.57C516.87 254.32 517.183 254.195 517.55 254.195H518.968C519.32 254.195 519.62 254.32 519.87 254.57C520.12 254.82 520.245 255.129 520.245 255.496V256.891C520.245 257.25 520.12 257.551 519.87 257.793C519.62 258.035 519.32 258.156 518.968 258.156ZM525.788 271H524.347C523.995 271 523.698 270.875 523.456 270.625C523.214 270.375 523.093 270.066 523.093 269.699V268.316C523.093 267.949 523.214 267.645 523.456 267.402C523.698 267.16 523.995 267.039 524.347 267.039H525.788C526.155 267.039 526.46 267.16 526.702 267.402C526.952 267.645 527.077 267.949 527.077 268.316V269.699C527.077 270.066 526.952 270.375 526.702 270.625C526.46 270.875 526.155 271 525.788 271Z" fill="white"/>
<path opacity="0.12" d="M397.656 77.1719V76.0469C397.656 75.4844 397.469 74.9688 397.094 74.5L393.719 71.0312C393.281 70.5938 392.703 70.375 391.984 70.375H381.156C380.438 70.375 379.859 70.5938 379.422 71.0312L376.047 74.5C375.609 74.9375 375.391 75.4531 375.391 76.0469V84.9531C375.391 85.8906 375.688 86.6875 376.281 87.3438C376.875 88 377.625 88.3281 378.531 88.3281H394.984C396.516 88.3281 397.75 88.7969 398.688 89.7344L406.75 97.7031C407.719 98.6719 408.203 99.8906 408.203 101.359V113.828C408.203 115.297 407.719 116.516 406.75 117.484L398.688 125.359C397.75 126.453 396.516 127 394.984 127H378.062C376.469 127 375.25 126.453 374.406 125.359L366.344 117.484C365.344 116.484 364.844 115.266 364.844 113.828V72.9531C364.844 71.5156 365.344 70.2969 366.344 69.2969L374.406 61.4219C375.25 60.3281 376.469 59.7812 378.062 59.7812H394.984C396.516 59.7812 397.75 60.3281 398.688 61.4219L406.75 69.2969C407.719 70.2656 408.203 71.4844 408.203 72.9531V77.1719C408.203 78.6406 407.703 79.8594 406.703 80.8281C405.734 81.7969 404.516 82.2812 403.047 82.2812C401.547 82.2812 400.266 81.7969 399.203 80.8281C398.172 79.8594 397.656 78.6406 397.656 77.1719ZM375.391 101.922V110.781C375.391 111.375 375.609 111.891 376.047 112.328L379.422 115.75C379.891 116.219 380.469 116.453 381.156 116.453H391.984C392.672 116.453 393.25 116.219 393.719 115.75L397.094 112.328C397.469 111.859 397.656 111.344 397.656 110.781V104.453C397.656 103.828 397.469 103.281 397.094 102.812L393.719 99.25C393.188 98.8125 392.609 98.5938 391.984 98.5938H378.531C377.625 98.5938 376.875 98.9219 376.281 99.5781C375.688 100.203 375.391 100.984 375.391 101.922Z" fill="black"/>
<path d="M371.013 98.5898V89.9766C371.013 89.8516 370.977 89.7891 370.907 89.7891C370.876 89.7891 370.829 89.8203 370.766 89.8828L370.169 90.5039C369.927 90.7461 369.622 90.8672 369.255 90.8672C368.888 90.8672 368.583 90.7461 368.341 90.5039C368.106 90.2617 367.989 89.957 367.989 89.5898C367.989 89.2148 368.114 88.9023 368.364 88.6523L371.388 85.582C371.645 85.3242 371.966 85.1953 372.348 85.1953C372.716 85.1953 373.024 85.3203 373.274 85.5703C373.524 85.8203 373.649 86.1289 373.649 86.4961V98.5898C373.649 98.8164 373.727 99.0117 373.884 99.1758C374.048 99.332 374.243 99.4102 374.47 99.4102H375.454C375.821 99.4102 376.122 99.5352 376.356 99.7852C376.598 100.027 376.72 100.332 376.72 100.699C376.72 101.074 376.598 101.387 376.356 101.637C376.122 101.879 375.821 102 375.454 102H369.255C368.888 102 368.583 101.879 368.341 101.637C368.106 101.387 367.989 101.074 367.989 100.699C367.989 100.332 368.106 100.027 368.341 99.7852C368.583 99.5352 368.888 99.4102 369.255 99.4102H370.216C370.442 99.4102 370.63 99.332 370.778 99.1758C370.934 99.0117 371.013 98.8164 371.013 98.5898ZM383.723 97.6523V97.9453C383.723 98.1094 383.777 98.2461 383.887 98.3555L384.73 99.1875C384.848 99.3047 384.992 99.3633 385.164 99.3633H387.871C388.043 99.3633 388.188 99.3047 388.305 99.1875L389.148 98.3555C389.242 98.2383 389.289 98.1016 389.289 97.9453V95.8359C389.289 95.6797 389.242 95.543 389.148 95.4258L388.305 94.582C388.195 94.4727 388.051 94.418 387.871 94.418H384.391C383.984 94.418 383.68 94.2891 383.477 94.0312L381.461 92.0391C381.211 91.7891 381.086 91.4766 381.086 91.1016V86.5195C381.086 86.1523 381.211 85.8398 381.461 85.582C381.719 85.3242 382.031 85.1953 382.398 85.1953H390.637C391.004 85.1953 391.309 85.3242 391.551 85.582C391.801 85.832 391.926 86.1445 391.926 86.5195C391.926 86.9023 391.801 87.2188 391.551 87.4688C391.309 87.7188 391.004 87.8438 390.637 87.8438H384.508C384.281 87.8438 384.094 87.9219 383.945 88.0781C383.797 88.2344 383.723 88.4258 383.723 88.6523V90.3633C383.723 90.5586 383.777 90.6953 383.887 90.7734L384.73 91.6055C384.848 91.7227 384.992 91.7812 385.164 91.7812H388.621C389.004 91.7812 389.313 91.9141 389.547 92.1797L391.563 94.1484C391.805 94.4297 391.926 94.7344 391.926 95.0625V98.7305C391.926 99.043 391.805 99.3398 391.563 99.6211L389.547 101.59C389.313 101.863 389.004 102 388.621 102H384.391C383.992 102 383.688 101.863 383.477 101.59L381.461 99.6211C381.211 99.3711 381.086 99.0742 381.086 98.7305V97.6523C381.086 97.3086 381.211 97.0156 381.461 96.7734C381.719 96.5312 382.031 96.4102 382.398 96.4102C382.766 96.4102 383.078 96.5312 383.336 96.7734C383.594 97.0156 383.723 97.3086 383.723 97.6523ZM403.441 88.6758V86.4961C403.441 86.1289 403.57 85.8203 403.827 85.5703C404.093 85.3203 404.413 85.1953 404.788 85.1953C405.155 85.1953 405.46 85.3203 405.702 85.5703C405.952 85.8203 406.077 86.1289 406.077 86.4961V89.4727C406.077 89.8242 405.948 90.1289 405.691 90.3867L398.038 98.0859C397.929 98.1953 397.874 98.3398 397.874 98.5195V100.699C397.874 101.066 397.745 101.375 397.488 101.625C397.23 101.875 396.917 102 396.55 102C396.183 102 395.87 101.875 395.613 101.625C395.363 101.375 395.238 101.066 395.238 100.699V97.7227C395.238 97.3867 395.37 97.0859 395.636 96.8203L403.3 89.1094C403.394 88.9922 403.441 88.8477 403.441 88.6758ZM397.968 89.1562H396.55C396.175 89.1562 395.863 89.0391 395.613 88.8047C395.363 88.5625 395.238 88.2578 395.238 87.8906V86.4961C395.238 86.1289 395.363 85.8203 395.613 85.5703C395.87 85.3203 396.183 85.1953 396.55 85.1953H397.968C398.32 85.1953 398.62 85.3203 398.87 85.5703C399.12 85.8203 399.245 86.1289 399.245 86.4961V87.8906C399.245 88.25 399.12 88.5508 398.87 88.793C398.62 89.0352 398.32 89.1562 397.968 89.1562ZM404.788 102H403.347C402.995 102 402.698 101.875 402.456 101.625C402.214 101.375 402.093 101.066 402.093 100.699V99.3164C402.093 98.9492 402.214 98.6445 402.456 98.4023C402.698 98.1602 402.995 98.0391 403.347 98.0391H404.788C405.155 98.0391 405.46 98.1602 405.702 98.4023C405.952 98.6445 406.077 98.9492 406.077 99.3164V100.699C406.077 101.066 405.952 101.375 405.702 101.625C405.46 101.875 405.155 102 404.788 102Z" fill="white"/>
<circle cx="296" cy="295" r="106" fill="white"/>
</svg>
